:SAMPLES-PER-SECOND 30
:FULLY-SPECIFIED
:DEGREES
215
root  -15.0906 40.427 -13.6496 131.659 -83.0527 -137.117
RightUpLeg  2.22782 -6.33354 2.69757
RightLeg  9.99973 -3.69857 4.68608
RightFoot  -5.28183 0.19679 -4.38843
RightToes  0.00048216 0.542163 -0.142577
Spine  0.0703906 -0.543974 4.23125
Spine1  22.7157 -2.01284 5.10888
HEad  -15.7565 2.41424 4.03218
LeftShoulder1  7.18807 -14.3924 -34.1118
LeftArm  -48.7139 25.8401 -29.573
LeftForeArm  106.392 -67.8266 -148.786
LeftHand  -0.25398 0.0180481 5.50724
RightShoulder  4.79895 9.85762 29.9516
RightArm  -34.6984 -22.457 33.616
RightForeArm  69.1364 70.7305 140.338
RightHand  -1.12946 3.56784 -14.8777
LeftUpLeg  6.08 10.3638 18.0949
LeftLeg  11.5703 5.55406 1.52826
LeftFoot  -7.32883 0.396988 -10.0624
LeftToes  1.06246e-005 4.65855e-005 -8.18503e-006
216
root  -15.068 40.4458 -13.6268 130.82 -83.3575 -136.309
RightUpLeg  2.31547 -6.41786 2.49913
RightLeg  9.81998 -3.86123 4.65751
RightFoot  -5.1519 0.201046 -4.35871
RightToes  0.00048216 0.542163 -0.142577
Spine  0.450754 -0.608593 4.76973
Spine1  22.18 -1.75079 4.32654
HEad  -15.4458 0.551076 3.33105
LeftShoulder1  7.34433 -14.4909 -34.7511
LeftArm  -44.0897 24.5792 -29.1845
LeftForeArm  111.049 -71.5435 -142.47
LeftHand  -0.25398 0.0180481 5.50724
RightShoulder  4.77023 9.93951 29.5111
RightArm  -27.3414 -22.2789 31.6359
RightForeArm  58.0477 74.328 127.778
RightHand  -1.10052 3.39693 -14.7716
LeftUpLeg  6.11367 10.3002 17.9005
LeftLeg  11.2791 5.37463 1.43478
LeftFoot  -7.13707 0.410526 -10.0031
LeftToes  1.06246e-005 4.65855e-005 -8.18503e-006
217
root  -15.0436 40.4681 -13.5952 130.063 -83.6961 -135.577
RightUpLeg  2.38893 -6.52456 2.24245
RightLeg  9.65528 -4.00495 4.62306
RightFoot  -5.02976 0.200438 -4.24843
RightToes  0.00048216 0.542163 -0.142577
Spine  0.700199 -0.656205 5.32474
Spine1  21.7614 -1.45904 3.4819
HEad  -14.7238 -1.31774 2.42952
LeftShoulder1  7.55378 -14.6214 -35.5964
LeftArm  -38.3229 22.7138 -28.5473
LeftForeArm  106.45 -76.3454 -126.581
LeftHand  -0.25398 0.0180481 5.50724
RightShoulder  4.84575 10.2155 29.3439
RightArm  -18.8059 -21.6066 29.4228
RightForeArm  36.8432 77.0837 105.708
RightHand  -1.11837 3.43628 -14.9418
LeftUpLeg  6.13867 10.1937 17.6211
LeftLeg  10.9676 5.28854 1.35783
LeftFoot  -6.8954 0.423094 -9.81993
LeftToes  1.06246e-005 4.65855e-005 -8.18503e-006
218
root  -15.0171 40.4961 -13.5595 129.724 -84.0988 -135.2
RightUpLeg  2.39214 -6.66192 1.90052
RightLeg  9.49075 -4.12053 4.58397
RightFoot  -4.89497 0.198343 -4.10623
RightToes  0.00048216 0.542163 -0.142577
Spine  0.674318 -0.646584 5.70106
Spine1  21.5752 -1.19592 2.81941
HEad  -13.7402 -3.07559 1.13682
LeftShoulder1  7.889 -14.8666 -36.8304
LeftArm  -31.9279 20.1672 -27.6089
LeftForeArm  76.3968 -79.3248 -87.5154
LeftHand  -0.25398 0.0180481 5.50724
RightShoulder  4.94818 10.5769 29.16
RightArm  -9.59172 -20.295 27.5855
RightForeArm  6.98615 77.1359 74.9471
RightHand  -1.06009 3.06151 -14.7755
LeftUpLeg  6.1399 10.0814 17.2333
LeftLeg  10.5501 5.25465 1.26267
LeftFoot  -6.58606 0.439405 -9.61732
LeftToes  1.06246e-005 4.65855e-005 -8.18503e-006
219
root  -14.9778 40.5251 -13.5204 129.575 -84.5704 -135.025
RightUpLeg  2.36784 -6.82246 1.49235
RightLeg  9.368 -4.23931 4.52236
RightFoot  -4.76238 0.197511 -3.99335
RightToes  0.00048216 0.542163 -0.142577
Spine  0.564219 -0.655796 5.97628
Spine1  21.4354 -0.94277 2.11466
HEad  -12.5749 -4.42841 -0.54976
LeftShoulder1  8.45551 -15.3571 -38.642
LeftArm  -25.3633 17.3929 -26.1305
LeftForeArm  39.1838 -75.4155 -44.8695
LeftHand  -0.25398 0.0180481 5.50724
RightShoulder  5.06628 10.9016 29.1869
RightArm  -0.0837297 -18.0401 26.4652
RightForeArm  -18.8034 73.4713 48.1097
RightHand  -0.941361 2.39337 -14.2293
LeftUpLeg  6.1776 10.0521 16.815
LeftLeg  10.0421 5.09435 1.09522
LeftFoot  -6.25225 0.458112 -9.45144
LeftToes  1.06246e-005 4.65855e-005 -8.18503e-006
220
root  -14.9266 40.5478 -13.4749 128.751 -85.0758 -134.25
RightUpLeg  2.37733 -6.98453 1.08099
RightLeg  9.31528 -4.40495 4.4428
RightFoot  -4.68449 0.19479 -3.89113
RightToes  0.00048216 0.542163 -0.142577
Spine  0.522191 -0.743975 6.34488
Spine1  21.2593 -0.662483 1.11783
HEad  -11.3701 -5.11961 -2.29297
LeftShoulder1  9.32093 -16.0724 -41.2718
LeftArm  -18.7381 14.8992 -23.8664
LeftForeArm  21.6008 -67.6353 -26.3056
LeftHand  -0.25398 0.0180481 5.50724
RightShoulder  5.32324 11.2896 30.0121
RightArm  8.91011 -15.2494 25.8256
RightForeArm  -33.3964 67.4926 32.3227
RightHand  -0.822539 1.69393 -13.6324
LeftUpLeg  6.26227 10.1117 16.4593
LeftLeg  9.55806 4.74626 0.866932
LeftFoot  -5.98143 0.471061 -9.28446
LeftToes  1.06246e-005 4.65855e-005 -8.18503e-006
